0
SECTION
2
HEADER
9
$INSUNITS
70
4
9
$ACADVER
1
AC1014
9
$HANDSEED
5
FFFF
0
ENDSEC
0
SECTION
2
TABLES
0
TABLE
2
VPORT
5
8
100
AcDbSymbolTable
0
ENDTAB
0
TABLE
2
LTYPE
5
5
100
AcDbSymbolTable
0
LTYPE
5
14
100
AcDbSymbolTableRecord
100
AcDbLinetypeTableRecord
2
BYBLOCK
70
0
0
LTYPE
5
15
100
AcDbSymbolTableRecord
100
AcDbLinetypeTableRecord
2
BYLAYER
70
0
0
ENDTAB
0
TABLE
2
LAYER
5
2
100
AcDbSymbolTable
70
2
0
LAYER
5
50
100
AcDbSymbolTableRecord
100
AcDbLayerTableRecord
2
0
70
0
6
CONTINUOUS
0
ENDTAB
0
TABLE
2
STYLE
5
3
100
AcDbSymbolTable
70
1
0
STYLE
5
11
100
AcDbSymbolTableRecord
100
AcDbTextStyleTableRecord
2
STANDARD
70
0
0
ENDTAB
0
TABLE
2
VIEW
5
6
100
AcDbSymbolTable
70
0
0
ENDTAB
0
TABLE
2
UCS
5
7
100
AcDbSymbolTable
70
0
0
ENDTAB
0
TABLE
2
APPID
5
9
100
AcDbSymbolTable
70
2
0
APPID
5
12
100
AcDbSymbolTableRecord
100
AcDbRegAppTableRecord
2
ACAD
70
0
0
ENDTAB
0
TABLE
2
DIMSTYLE
5
A
100
AcDbSymbolTable
70
1
0
ENDTAB
0
TABLE
2
BLOCK_RECORD
5
1
100
AcDbSymbolTable
70
1
0
BLOCK_RECORD
5
1F
100
AcDbSymbolTableRecord
100
AcDbBlockTableRecord
2
*MODEL_SPACE
0
BLOCK_RECORD
5
1B
100
AcDbSymbolTableRecord
100
AcDbBlockTableRecord
2
*PAPER_SPACE
0
ENDTAB
0
ENDSEC
0
SECTION
2
BLOCKS
0
BLOCK
5
20
100
AcDbEntity
100
AcDbBlockBegin
2
*MODEL_SPACE
0
ENDBLK
5
21
100
AcDbEntity
100
AcDbBlockEnd
0
BLOCK
5
1C
100
AcDbEntity
100
AcDbBlockBegin
2
*PAPER_SPACE
0
ENDBLK
5
1D
100
AcDbEntity
100
AcDbBlockEnd
0
ENDSEC
0
SECTION
2
ENTITIES
0
LWPOLYLINE
5
100
100
AcDbEntity
8
0
100
AcDbPolyline
90
4
70
1
43
0.0
10
2627.970035566811
20
1830.9389845707137
10
2627.9700355668101
20
1875.9389845707137
10
2633.9700355668106
20
1875.9389845707137
10
2633.970035566811
20
1830.9389845707137
0
LWPOLYLINE
5
101
100
AcDbEntity
8
0
100
AcDbPolyline
90
4
70
1
43
0.0
10
1615.9700355668085
20
1875.9389845707005
10
1621.9700355668083
20
1875.9389845707005
10
1621.970035566809
20
1830.9389845707005
10
1615.970035566809
20
1830.9389845707005
0
LWPOLYLINE
5
102
100
AcDbEntity
8
0
100
AcDbPolyline
90
4
70
1
43
0.0
10
2627.9700355668133
20
1685.938984570714
10
2633.9700355668133
20
1685.938984570714
10
2633.9700355668137
20
1640.938984570714
10
2627.9700355668137
20
1640.938984570714
0
LWPOLYLINE
5
103
100
AcDbEntity
8
0
100
AcDbPolyline
90
4
70
1
43
0.0
10
1615.9700355668115
20
1685.9389845707005
10
1621.9700355668115
20
1685.9389845707005
10
1621.9700355668119
20
1640.9389845707005
10
1615.9700355668122
20
1640.9389845707005
0
LWPOLYLINE
5
104
100
AcDbEntity
8
0
100
AcDbPolyline
90
28
70
1
43
0.0
10
2639.9700355668101
20
1886.4389845707137
10
2637.9700355668101
20
1888.4389845707137
10
2621.9700355668101
20
1888.4389845707137
10
2621.9700355668097
20
1928.4389845707137
10
1627.9700355668078
20
1928.4389845707008
10
1627.9700355668087
20
1888.4389845707005
10
1611.9700355668083
20
1888.4389845707005
10
1609.9700355668085
20
1886.4389845707003
10
1609.9700355668097
20
1820.4389845707005
10
1611.9700355668097
20
1818.4389845707005
10
1627.9700355668097
20
1818.4389845707008
10
1627.9700355668112
20
1698.4389845707005
10
1611.9700355668112
20
1698.4389845707005
10
1609.9700355668115
20
1696.4389845707005
10
1609.9700355668124
20
1630.4389845707005
10
1611.9700355668126
20
1628.4389845707005
10
1627.9700355668126
20
1628.4389845707008
10
1627.9700355668133
20
1584.6519845707007
10
2621.9700355668147
20
1584.6519845707139
10
2621.9700355668142
20
1628.4389845707137
10
2637.9700355668142
20
1628.438984570714
10
2639.9700355668142
20
1630.4389845707137
10
2639.9700355668128
20
1696.4389845707137
10
2637.9700355668133
20
1698.4389845707137
10
2621.9700355668128
20
1698.4389845707137
10
2621.970035566811
20
1818.4389845707137
10
2637.9700355668115
20
1818.438984570714
10
2639.9700355668115
20
1820.4389845707137
0
LWPOLYLINE
5
105
100
AcDbEntity
8
0
100
AcDbPolyline
90
4
70
1
43
0.0
10
1678.9353718178672
20
1528.4003499018036
10
1744.7138552728804
20
1504.4589398690068
10
1742.6617344129263
20
1498.8207841442913
10
1676.8832509579129
20
1522.7621941770883
0
LWPOLYLINE
5
106
100
AcDbEntity
8
0
100
AcDbPolyline
90
4
70
1
43
0.0
10
2264.4017740085546
20
1424.4990119757022
10
2264.4017740085546
20
1418.4990766213286
10
2194.4017740085546
20
1418.4990766213286
10
2194.4017740085546
20
1424.4990119757026
0
LWPOLYLINE
5
107
100
AcDbEntity
8
0
100
AcDbPolyline
90
4
70
1
43
0.0
10
1857.4769697671891
20
1463.4165226699267
10
1923.2554532222025
20
1439.4751126371298
10
1921.2033323622484
20
1433.8369569124145
10
1855.4248489072349
20
1457.7783669452115
0
LWPOLYLINE
5
108
100
AcDbEntity
8
0
100
AcDbPolyline
90
4
70
1
43
0.0
10
2593.6557204351852
20
1528.4003499018031
10
2595.7078412951391
20
1522.7621941770874
10
2529.9293578401252
20
1498.8207841442911
10
2527.8772369801718
20
1504.4589398690064
0
LWPOLYLINE
5
109
100
AcDbEntity
8
0
100
AcDbPolyline
90
4
70
1
43
0.0
10
2415.1141224858629
20
1463.4165226699265
10
2417.1662433458168
20
1457.7783669452108
10
2351.3877598908034
20
1433.8369569124143
10
2349.3356390308495
20
1439.4751126371298
0
LWPOLYLINE
5
110
100
AcDbEntity
8
0
100
AcDbPolyline
90
4
70
1
43
0.0
10
2074.4017740085546
20
1424.4990119757026
10
2074.4017740085546
20
1418.4990766213289
10
2004.4017740085546
20
1418.4990766213289
10
2004.4017740085551
20
1424.4990119757026
0
CIRCLE
5
111
100
AcDbEntity
8
0
100
AcDbCircle
10
2616.2955461264778
20
1437.5429999101157
30
0
40
2.9999999999999645
210
0
220
-0
230
1
0
CIRCLE
5
112
100
AcDbEntity
8
0
100
AcDbCircle
10
2616.2955461264778
20
1487.5429999101157
30
0
40
2.9999999999999645
210
0
220
-0
230
1
0
LWPOLYLINE
5
113
100
AcDbEntity
8
0
100
AcDbPolyline
90
42
70
1
43
0.0
10
2631.2955461264783
20
1392.5429999101164
10
2631.2955461264783
20
1542.5429999101157
10
2591.2955461264778
20
1542.5429999101157
10
2591.2955461264778
20
1536.4429999101144
10
2506.2955461264773
20
1536.4429999101126
10
2506.2955461264783
20
1542.5429999101198
10
2466.2955461264783
20
1542.5429999101157
10
2466.2955461264773
20
1536.442999910116
10
2406.2955461264783
20
1536.4429999101121
10
2406.2955461264783
20
1542.5429999101157
10
2366.2955461264783
20
1542.5429999101157
10
2366.2955461264773
20
1536.442999910116
10
2306.2955461264787
20
1536.4429999101121
10
2306.2955461264787
20
1542.5429999101161
10
2266.2955461264787
20
1542.5429999101161
10
2266.2955461264783
20
1536.4429999101162
10
2206.2955461264792
20
1536.4429999101121
10
2206.2955461264792
20
1542.5429999101161
10
2166.2955461264792
20
1542.5429999101161
10
2166.2955461264783
20
1536.4429999101162
10
2106.2955461264792
20
1536.4429999101126
10
2106.2955461264792
20
1542.5429999101161
10
2066.2955461264792
20
1542.5429999101161
10
2066.2955461264783
20
1536.4429999101162
10
2006.2955461264796
20
1536.4429999101126
10
2006.2955461264796
20
1542.5429999101161
10
1966.2955461264796
20
1542.5429999101164
10
1966.2955461264787
20
1536.4429999101164
10
1906.2955461264798
20
1536.4429999101126
10
1906.2955461264796
20
1542.5429999101164
10
1866.2955461264796
20
1542.5429999101164
10
1866.2955461264789
20
1536.4429999101164
10
1806.2955461264798
20
1536.4429999101126
10
1806.2955461264798
20
1542.5429999101125
10
1766.2955461264801
20
1542.5429999101164
10
1766.2955461264798
20
1536.4429999101164
10
1681.2955461264801
20
1536.4429999101135
10
1681.2955461264803
20
1542.5429999101164
10
1641.2955461264803
20
1542.5429999101164
10
1641.2955461264803
20
1392.5429999101164
10
1970.9928364610437
20
1272.5429999101168
10
2301.5982557919251
20
1272.5429999101166
0
ENDSEC
0
SECTION
2
OBJECTS
0
DICTIONARY
5
C
100
AcDbDictionary
3
ACAD_GROUP
350
D
3
ACAD_MLINESTYLE
350
17
0
DICTIONARY
5
D
100
AcDbDictionary
0
DICTIONARY
5
1A
330
C
100
AcDbDictionary
0
DICTIONARY
5
17
100
AcDbDictionary
0
ENDSEC
0
EOF
