0
SECTION
2
HEADER
9
$INSUNITS
70
4
9
$ACADVER
1
AC1014
9
$HANDSEED
5
FFFF
0
ENDSEC
0
SECTION
2
TABLES
0
TABLE
2
VPORT
5
8
100
AcDbSymbolTable
0
ENDTAB
0
TABLE
2
LTYPE
5
5
100
AcDbSymbolTable
0
LTYPE
5
14
100
AcDbSymbolTableRecord
100
AcDbLinetypeTableRecord
2
BYBLOCK
70
0
0
LTYPE
5
15
100
AcDbSymbolTableRecord
100
AcDbLinetypeTableRecord
2
BYLAYER
70
0
0
ENDTAB
0
TABLE
2
LAYER
5
2
100
AcDbSymbolTable
70
2
0
LAYER
5
50
100
AcDbSymbolTableRecord
100
AcDbLayerTableRecord
2
0
70
0
6
CONTINUOUS
0
ENDTAB
0
TABLE
2
STYLE
5
3
100
AcDbSymbolTable
70
1
0
STYLE
5
11
100
AcDbSymbolTableRecord
100
AcDbTextStyleTableRecord
2
STANDARD
70
0
0
ENDTAB
0
TABLE
2
VIEW
5
6
100
AcDbSymbolTable
70
0
0
ENDTAB
0
TABLE
2
UCS
5
7
100
AcDbSymbolTable
70
0
0
ENDTAB
0
TABLE
2
APPID
5
9
100
AcDbSymbolTable
70
2
0
APPID
5
12
100
AcDbSymbolTableRecord
100
AcDbRegAppTableRecord
2
ACAD
70
0
0
ENDTAB
0
TABLE
2
DIMSTYLE
5
A
100
AcDbSymbolTable
70
1
0
ENDTAB
0
TABLE
2
BLOCK_RECORD
5
1
100
AcDbSymbolTable
70
1
0
BLOCK_RECORD
5
1F
100
AcDbSymbolTableRecord
100
AcDbBlockTableRecord
2
*MODEL_SPACE
0
BLOCK_RECORD
5
1B
100
AcDbSymbolTableRecord
100
AcDbBlockTableRecord
2
*PAPER_SPACE
0
ENDTAB
0
ENDSEC
0
SECTION
2
BLOCKS
0
BLOCK
5
20
100
AcDbEntity
100
AcDbBlockBegin
2
*MODEL_SPACE
0
ENDBLK
5
21
100
AcDbEntity
100
AcDbBlockEnd
0
BLOCK
5
1C
100
AcDbEntity
100
AcDbBlockBegin
2
*PAPER_SPACE
0
ENDBLK
5
1D
100
AcDbEntity
100
AcDbBlockEnd
0
ENDSEC
0
SECTION
2
ENTITIES
0
LWPOLYLINE
5
100
100
AcDbEntity
8
0
100
AcDbPolyline
90
4
70
1
43
0.0
10
1576.6399058081347
20
2699.9120747055931
10
1576.6399058081342
20
2669.9120747055931
10
1564.4399058081342
20
2669.9120747055931
10
1564.439905808134
20
2699.9120747055931
0
LWPOLYLINE
5
101
100
AcDbEntity
8
0
100
AcDbPolyline
90
4
70
1
43
0.0
10
2594.9399058081349
20
2514.4120747055949
10
2594.9399058081344
20
2484.4120747055945
10
2582.7399058081342
20
2484.4120747055945
10
2582.7399058081337
20
2514.4120747055945
0
LWPOLYLINE
5
102
100
AcDbEntity
8
0
100
AcDbPolyline
90
4
70
1
43
0.0
10
1576.6399058081345
20
2484.4120747055927
10
1564.4399058081342
20
2484.4120747055927
10
1564.439905808134
20
2514.4120747055927
10
1576.6399058081352
20
2514.4120747055931
0
LWPOLYLINE
5
103
100
AcDbEntity
8
0
100
AcDbPolyline
90
4
70
1
43
0.0
10
2594.9399058081344
20
2669.9120747055945
10
2582.7399058081342
20
2669.9120747055945
10
2582.7399058081337
20
2699.9120747055945
10
2594.9399058081349
20
2699.9120747055945
0
LWPOLYLINE
5
104
100
AcDbEntity
8
0
100
AcDbPolyline
90
32
70
1
43
0.0
10
2504.6899058081344
20
2424.4120747055945
10
2504.6899058081344
20
2452.4120747055945
10
2576.6399058081342
20
2452.4120747055945
10
2576.6399058081342
20
2464.4120747055945
10
2599.0399058081348
20
2464.4120747055945
10
2601.0399058081343
20
2466.4120747055945
10
2601.0399058081343
20
2532.4120747055945
10
2599.0399058081348
20
2534.4120747055945
10
2576.6399058081342
20
2534.4120747055945
10
2576.6399058081342
20
2649.9120747055945
10
2599.0399058081348
20
2649.9120747055945
10
2601.0399058081343
20
2651.9120747055945
10
2601.0399058081343
20
2717.9120747055949
10
2599.0399058081348
20
2719.9120747055945
10
2576.6399058081342
20
2719.9120747055945
10
2576.6399058081342
20
2759.9120747055949
10
1582.7399058081346
20
2759.9120747055931
10
1582.7399058081344
20
2719.9120747055931
10
1560.3399058081334
20
2719.9120747055867
10
1558.3399058081336
20
2717.9120747055863
10
1558.3399058081343
20
2651.9120747055927
10
1560.3399058081345
20
2649.9120747055931
10
1582.7399058081346
20
2649.9120747055931
10
1582.7399058081346
20
2534.4120747055927
10
1560.3399058081345
20
2534.4120747055927
10
1558.3399058081345
20
2532.4120747055931
10
1558.3399058081345
20
2466.4120747055931
10
1560.3399058081345
20
2464.4120747055927
10
1582.7399058081346
20
2464.4120747055927
10
1582.7399058081346
20
2452.4120747055931
10
1654.6899058081344
20
2452.4120747055931
10
1654.6899058081344
20
2424.4120747055927
0
LWPOLYLINE
5
105
100
AcDbEntity
8
0
100
AcDbPolyline
90
4
70
1
43
0.0
10
2584.8431087777449
20
2135.5122582663935
10
2584.8431087777526
20
2165.5122582663935
10
2590.943108777753
20
2165.5122582663917
10
2590.9431087777457
20
2135.5122582663917
0
LWPOLYLINE
5
106
100
AcDbEntity
8
0
100
AcDbPolyline
90
4
70
1
43
0.0
10
2584.8431087777931
20
2321.0122582663926
10
2584.8431087778008
20
2351.0122582663926
10
2590.9431087778012
20
2351.0122582663912
10
2590.9431087777939
20
2321.0122582663912
0
LWPOLYLINE
5
107
100
AcDbEntity
8
0
100
AcDbPolyline
90
4
70
1
43
0.0
10
1572.6431087777476
20
2135.5122582666572
10
1572.6431087777546
20
2165.5122582666572
10
1578.7431087777552
20
2165.5122582666554
10
1578.7431087777481
20
2135.5122582666554
0
LWPOLYLINE
5
108
100
AcDbEntity
8
0
100
AcDbPolyline
90
4
70
1
43
0.0
10
1578.7431087777961
20
2321.012258266655
10
1572.643108777796
20
2321.0122582666568
10
1572.643108777803
20
2351.0122582666568
10
1578.7431087778034
20
2351.012258266655
0
LWPOLYLINE
5
109
100
AcDbEntity
8
0
100
AcDbPolyline
90
36
70
1
43
0.0
10
1560.4431087777427
20
2117.5122582666604
10
1562.4431087777421
20
2115.51225826666
10
1584.8431087777421
20
2115.512258266654
10
1584.8431087777317
20
2075.5122582666545
10
2578.7431087777295
20
2075.5122582663948
10
2578.74310877774
20
2115.5122582663948
10
2601.1431087777401
20
2115.5122582663889
10
2603.1431087777401
20
2117.5122582663889
10
2603.1431087777578
20
2183.512258266388
10
2601.1431087777582
20
2185.5122582663889
10
2578.7431087777577
20
2185.5122582663948
10
2578.7431087777722
20
2240.2122582663942
10
2548.7431087777722
20
2240.2122582664024
10
2548.7431087777741
20
2246.3122582664023
10
2578.7431087777736
20
2246.3122582663941
10
2578.7431087777877
20
2301.0122582663944
10
2601.1431087777883
20
2301.0122582663885
10
2603.1431087777892
20
2303.012258266388
10
2603.143108777806
20
2369.012258266388
10
2601.1431087778064
20
2371.012258266388
10
2578.7431087778068
20
2371.0122582663944
10
2578.7431087778168
20
2411.0122582663939
10
1584.8431087778192
20
2411.0122582666536
10
1584.8431087778088
20
2371.0122582666536
10
1562.4431087778087
20
2371.0122582666595
10
1560.4431087778082
20
2369.01225826666
10
1560.4431087777912
20
2303.01225826666
10
1562.4431087777905
20
2301.0122582666595
10
1584.8431087777906
20
2301.0122582666536
10
1584.8431087777763
20
2246.3122582666538
10
1614.8431087777763
20
2246.3122582666456
10
1614.8431087777747
20
2240.2122582666461
10
1584.8431087777747
20
2240.2122582666539
10
1584.8431087777603
20
2185.512258266654
10
1562.4431087777602
20
2185.51225826666
10
1560.4431087777598
20
2183.5122582666604
0
CIRCLE
5
110
100
AcDbEntity
8
0
100
AcDbCircle
10
2560.0037781668311
20
1963.6976038679309
30
0
40
3.0499999999999972
210
-0
220
0
230
1
0
CIRCLE
5
111
100
AcDbEntity
8
0
100
AcDbCircle
10
1600.0037781668502
20
2013.6976038682949
30
0
40
3.0500000000000682
210
-0
220
0
230
1
0
CIRCLE
5
112
100
AcDbEntity
8
0
100
AcDbCircle
10
2560.0037781668507
20
2013.6976038679304
30
0
40
3.0499999999999972
210
-0
220
0
230
1
0
CIRCLE
5
113
100
AcDbEntity
8
0
100
AcDbCircle
10
2098.05377816685
20
2013.6976038681059
30
0
40
3.0500000000000682
210
-0
220
0
230
1
0
CIRCLE
5
114
100
AcDbEntity
8
0
100
AcDbCircle
10
1600.0037781668311
20
1963.6976038682951
30
0
40
3.0500000000000682
210
-0
220
0
230
1
0
LWPOLYLINE
5
115
100
AcDbEntity
8
0
100
AcDbPolyline
90
4
70
1
43
0.0
10
1952.253778166847
20
1994.7537907395358
10
1952.2537781668575
20
2000.8537907395375
10
2022.253778166837
20
2000.8537907395103
10
2022.2537781668398
20
1994.7537907395094
0
CIRCLE
5
116
100
AcDbEntity
8
0
100
AcDbCircle
10
2061.9537781668505
20
2013.6976038681196
30
0
40
3.0500000000000682
210
-0
220
0
230
1
0
LWPOLYLINE
5
117
100
AcDbEntity
8
0
100
AcDbPolyline
90
4
70
1
43
0.0
10
2286.7701716094689
20
2003.5697446146546
10
2285.4257386435042
20
2009.519744614656
10
2353.7044271680957
20
2024.9476638963079
10
2355.0488601340676
20
2018.9976638963096
0
LWPOLYLINE
5
118
100
AcDbEntity
8
0
100
AcDbPolyline
90
50
70
1
43
0.0
10
2466.3642632336732
20
2050.4037307110343
10
2519.8876051219427
20
2062.4976038679429
10
2450.0037781668689
20
2062.497603867972
10
2450.0037781668707
20
2068.6976038679718
10
2410.0037781668707
20
2068.6976038679832
10
2410.0037781668689
20
2062.4976038679833
10
2350.0037781668693
20
2062.4976038680102
10
2350.0037781668711
20
2068.6976038680095
10
2310.0037781668707
20
2068.697603868025
10
2310.0037781668689
20
2062.4976038680215
10
2250.0037781668693
20
2062.4976038680479
10
2250.0037781668711
20
2068.6976038680477
10
2210.0037781668707
20
2068.6976038680627
10
2210.0037781668689
20
2062.4976038680593
10
2150.0037781668693
20
2062.4976038680861
10
2150.0037781668711
20
2068.6976038680859
10
2110.0037781668707
20
2068.6976038681005
10
2110.0037781668689
20
2062.497603868097
10
2050.0037781668693
20
2062.4976038681239
10
2050.0037781668707
20
2068.6976038681237
10
2010.0037781668709
20
2068.6976038681387
10
2010.0037781668686
20
2062.4976038681352
10
1950.0037781668693
20
2062.4976038681616
10
1950.0037781668709
20
2068.6976038681619
10
1910.0037781668709
20
2068.6976038681764
10
1910.0037781668686
20
2062.497603868173
10
1850.0037781668693
20
2062.4976038681998
10
1850.0037781668709
20
2068.6976038681996
10
1810.0037781668709
20
2068.6976038682146
10
1810.0037781668686
20
2062.4976038682107
10
1750.0037781668693
20
2062.4976038682375
10
1750.0037781668709
20
2068.6976038682378
10
1710.0037781668709
20
2068.6976038682569
10
1710.0037781668689
20
2062.4976038682498
10
1640.1199512117375
20
2062.4976038682776
10
1693.6432931000359
20
2050.4037307113213
10
1692.2988601340662
20
2044.4537307113351
10
1624.0201716094882
20
2059.8816499930399
10
1625.0037781668696
20
2064.2347558484635
10
1625.0037781668709
20
2068.6976038682851
10
1585.0037781668709
20
2068.6976038683001
10
1585.0037781668138
20
1918.6976038683015
10
1912.2537781668057
20
1844.7537907395656
10
2247.7537781667943
20
1844.7537907394376
10
2575.0037781668143
20
1918.6976038679254
10
2575.0037781668707
20
2068.6976038679245
10
2535.0037781668707
20
2068.6976038679395
10
2535.0037781668693
20
2064.2347558480947
10
2535.987384724247
20
2059.8816499926938
10
2467.7086961996506
20
2044.4537307110397
0
CIRCLE
5
119
100
AcDbEntity
8
0
100
AcDbCircle
10
1733.05377816685
20
2013.6976038682442
30
0
40
3.0500000000000682
210
-0
220
0
230
1
0
LWPOLYLINE
5
120
100
AcDbEntity
8
0
100
AcDbPolyline
90
4
70
1
43
0.0
10
2076.9537781668355
20
1974.7537907395022
10
2083.0537781668354
20
1974.7537907394999
10
2083.0537781668049
20
1894.7537907395006
10
2076.953778166805
20
1894.7537907395026
0
CIRCLE
5
121
100
AcDbEntity
8
0
100
AcDbCircle
10
2426.95377816685
20
2013.6976038679811
30
0
40
3.0499999999999972
210
-0
220
0
230
1
0
LWPOLYLINE
5
122
100
AcDbEntity
8
0
100
AcDbPolyline
90
4
70
1
43
0.0
10
2207.7537781668425
20
1994.753790739439
10
2137.7537781668434
20
1994.7537907394653
10
2137.753778166847
20
2000.8537907394659
10
2207.7537781668443
20
2000.8537907394389
0
LWPOLYLINE
5
123
100
AcDbEntity
8
0
100
AcDbPolyline
90
4
70
1
43
0.0
10
1873.2373847242316
20
2003.5697446148095
10
1804.9586961996374
20
2018.9976638965177
10
1806.303129165613
20
2024.9476638965107
10
1874.5818176902135
20
2009.5197446148052
0
LWPOLYLINE
5
124
100
AcDbEntity
8
0
100
AcDbPolyline
90
4
70
1
43
0.0
10
1631.502113671831
20
1901.4592456185501
10
1581.5021136718319
20
1906.4592456185546
10
1581.502113671829
20
1871.4592456185549
10
1631.5021136718283
20
1876.4592456185501
0
LWPOLYLINE
5
125
100
AcDbEntity
8
0
100
AcDbPolyline
90
4
70
1
43
0.0
10
1583.0823473642954
20
1842.0410615486524
10
1633.0823473642965
20
1837.0410615486699
10
1633.0823473642843
20
1872.0410615486694
10
1583.0823473642863
20
1867.0410615486521
0
LWPOLYLINE
5
126
100
AcDbEntity
8
0
100
AcDbPolyline
90
4
70
1
43
0.0
10
1688.1255777868137
20
1891.4668695982652
10
1638.1255777868146
20
1896.4668695982698
10
1638.1255777868114
20
1861.46686959827
10
1688.1255777868114
20
1866.4668695982652
0
LWPOLYLINE
5
127
100
AcDbEntity
8
0
100
AcDbPolyline
90
4
70
1
43
0.0
10
1745.8593059040418
20
1879.2539655734672
10
1695.8593059040431
20
1884.2539655734718
10
1695.85930590404
20
1849.253965573472
10
1745.8593059040395
20
1854.2539655734672
0
LWPOLYLINE
5
128
100
AcDbEntity
8
0
100
AcDbPolyline
90
4
70
1
43
0.0
10
2533.8995346250254
20
1878.0442509518148
10
2583.8995346250249
20
1873.0442509518202
10
2583.8995346250213
20
1908.0442509518193
10
2533.8995346250222
20
1903.0442509518141
0
LWPOLYLINE
5
129
100
AcDbEntity
8
0
100
AcDbPolyline
90
4
70
1
43
0.0
10
2583.157263581943
20
1867.9418315336691
10
2533.1572635819439
20
1872.9418315336736
10
2533.1572635819412
20
1837.9418315336738
10
2583.1572635819407
20
1842.9418315336691
0
LWPOLYLINE
5
130
100
AcDbEntity
8
0
100
AcDbPolyline
90
4
70
1
43
0.0
10
2477.6381609825339
20
1867.2707964245251
10
2527.6381609825339
20
1862.2707964245305
10
2527.6381609825298
20
1897.2707964245292
10
2477.6381609825312
20
1892.2707964245242
0
LWPOLYLINE
5
131
100
AcDbEntity
8
0
100
AcDbPolyline
90
4
70
1
43
0.0
10
2421.3767873400498
20
1852.9061903881495
10
2471.3767873400498
20
1847.906190388155
10
2471.3767873400452
20
1882.9061903881538
10
2421.3767873400466
20
1877.9061903881486
0
ENDSEC
0
SECTION
2
OBJECTS
0
DICTIONARY
5
C
100
AcDbDictionary
3
ACAD_GROUP
350
D
3
ACAD_MLINESTYLE
350
17
0
DICTIONARY
5
D
100
AcDbDictionary
0
DICTIONARY
5
1A
330
C
100
AcDbDictionary
0
DICTIONARY
5
17
100
AcDbDictionary
0
ENDSEC
0
EOF
