0
SECTION
2
HEADER
9
$INSUNITS
70
4
9
$ACADVER
1
AC1014
9
$HANDSEED
5
FFFF
0
ENDSEC
0
SECTION
2
TABLES
0
TABLE
2
VPORT
5
8
100
AcDbSymbolTable
0
ENDTAB
0
TABLE
2
LTYPE
5
5
100
AcDbSymbolTable
0
LTYPE
5
14
100
AcDbSymbolTableRecord
100
AcDbLinetypeTableRecord
2
BYBLOCK
70
0
0
LTYPE
5
15
100
AcDbSymbolTableRecord
100
AcDbLinetypeTableRecord
2
BYLAYER
70
0
0
ENDTAB
0
TABLE
2
LAYER
5
2
100
AcDbSymbolTable
70
2
0
LAYER
5
50
100
AcDbSymbolTableRecord
100
AcDbLayerTableRecord
2
0
70
0
6
CONTINUOUS
0
ENDTAB
0
TABLE
2
STYLE
5
3
100
AcDbSymbolTable
70
1
0
STYLE
5
11
100
AcDbSymbolTableRecord
100
AcDbTextStyleTableRecord
2
STANDARD
70
0
0
ENDTAB
0
TABLE
2
VIEW
5
6
100
AcDbSymbolTable
70
0
0
ENDTAB
0
TABLE
2
UCS
5
7
100
AcDbSymbolTable
70
0
0
ENDTAB
0
TABLE
2
APPID
5
9
100
AcDbSymbolTable
70
2
0
APPID
5
12
100
AcDbSymbolTableRecord
100
AcDbRegAppTableRecord
2
ACAD
70
0
0
ENDTAB
0
TABLE
2
DIMSTYLE
5
A
100
AcDbSymbolTable
70
1
0
ENDTAB
0
TABLE
2
BLOCK_RECORD
5
1
100
AcDbSymbolTable
70
1
0
BLOCK_RECORD
5
1F
100
AcDbSymbolTableRecord
100
AcDbBlockTableRecord
2
*MODEL_SPACE
0
BLOCK_RECORD
5
1B
100
AcDbSymbolTableRecord
100
AcDbBlockTableRecord
2
*PAPER_SPACE
0
ENDTAB
0
ENDSEC
0
SECTION
2
BLOCKS
0
BLOCK
5
20
100
AcDbEntity
100
AcDbBlockBegin
2
*MODEL_SPACE
0
ENDBLK
5
21
100
AcDbEntity
100
AcDbBlockEnd
0
BLOCK
5
1C
100
AcDbEntity
100
AcDbBlockBegin
2
*PAPER_SPACE
0
ENDBLK
5
1D
100
AcDbEntity
100
AcDbBlockEnd
0
ENDSEC
0
SECTION
2
ENTITIES
0
LWPOLYLINE
5
100
100
AcDbEntity
8
0
100
AcDbPolyline
90
4
70
1
43
0.0
10
2627.5768076847357
20
1837.7019845707948
10
2627.5768076847357
20
1867.7019845707948
10
2633.6768076847352
20
1867.7019845707948
10
2633.6768076847356
20
1837.7019845707948
0
LWPOLYLINE
5
101
100
AcDbEntity
8
0
100
AcDbPolyline
90
4
70
1
43
0.0
10
1615.3768076847341
20
1837.7019845707819
10
1615.3768076847334
20
1867.7019845707819
10
1621.4768076847345
20
1867.7019845707819
10
1621.4768076847345
20
1837.7019845707819
0
LWPOLYLINE
5
102
100
AcDbEntity
8
0
100
AcDbPolyline
90
4
70
1
43
0.0
10
2627.5768076847385
20
1674.701984570795
10
2633.6768076847384
20
1674.701984570795
10
2633.6768076847384
20
1644.701984570795
10
2627.5768076847385
20
1644.701984570795
0
LWPOLYLINE
5
103
100
AcDbEntity
8
0
100
AcDbPolyline
90
4
70
1
43
0.0
10
1615.3768076847371
20
1644.7019845707816
10
1615.3768076847361
20
1674.7019845707816
10
1621.4768076847372
20
1674.7019845707819
10
1621.4768076847372
20
1644.7019845707819
0
LWPOLYLINE
5
104
100
AcDbEntity
8
0
100
AcDbPolyline
90
28
70
1
43
0.0
10
2645.8768076847346
20
1885.701984570795
10
2643.8768076847346
20
1887.7019845707948
10
2621.4768076847349
20
1887.7019845707946
10
2621.4768076847345
20
1927.7019845707946
10
1627.5768076847328
20
1927.7019845707819
10
1627.576807684733
20
1887.7019845707821
10
1605.1768076847334
20
1887.7019845707814
10
1603.1768076847334
20
1885.7019845707814
10
1603.1768076847345
20
1819.7019845707816
10
1605.1768076847347
20
1817.7019845707819
10
1627.5768076847341
20
1817.7019845707821
10
1627.5768076847362
20
1694.7019845707819
10
1605.1768076847363
20
1694.7019845707816
10
1603.1768076847366
20
1692.7019845707819
10
1603.1768076847375
20
1626.7019845707819
10
1605.1768076847375
20
1624.7019845707816
10
1627.5768076847371
20
1624.7019845707819
10
1627.5768076847382
20
1584.7019845707819
10
2621.4768076847395
20
1584.7019845707948
10
2621.476807684739
20
1624.7019845707948
10
2643.8768076847391
20
1624.701984570795
10
2645.8768076847382
20
1626.701984570795
10
2645.8768076847377
20
1692.701984570795
10
2643.8768076847377
20
1694.701984570795
10
2621.4768076847372
20
1694.7019845707948
10
2621.4768076847358
20
1817.7019845707948
10
2643.8768076847364
20
1817.701984570795
10
2645.8768076847359
20
1819.701984570795
0
CIRCLE
5
105
100
AcDbEntity
8
0
100
AcDbCircle
10
2616.2955461264778
20
1437.4929999101159
30
0
40
3.0500000000000611
210
0
220
-0
230
1
0
CIRCLE
5
106
100
AcDbEntity
8
0
100
AcDbCircle
10
2616.2955461264778
20
1487.4929999101159
30
0
40
3.0500000000000611
210
0
220
-0
230
1
0
LWPOLYLINE
5
107
100
AcDbEntity
8
0
100
AcDbPolyline
90
42
70
1
43
0.0
10
2631.2955461264783
20
1392.4929999101164
10
2631.2955461264783
20
1542.4929999101159
10
2591.2955461264778
20
1542.4929999101159
10
2591.2955461264778
20
1536.2929999101143
10
2506.2955461264773
20
1536.2929999101127
10
2506.2955461264783
20
1542.4929999101198
10
2466.2955461264783
20
1542.4929999101159
10
2466.2955461264773
20
1536.2929999101157
10
2406.2955461264783
20
1536.292999910112
10
2406.2955461264783
20
1542.4929999101159
10
2366.2955461264783
20
1542.4929999101159
10
2366.2955461264773
20
1536.2929999101157
10
2306.2955461264787
20
1536.292999910112
10
2306.2955461264787
20
1542.4929999101159
10
2266.2955461264787
20
1542.4929999101162
10
2266.2955461264783
20
1536.2929999101161
10
2206.2955461264792
20
1536.2929999101125
10
2206.2955461264792
20
1542.4929999101162
10
2166.2955461264792
20
1542.4929999101162
10
2166.2955461264783
20
1536.2929999101161
10
2106.2955461264792
20
1536.2929999101125
10
2106.2955461264792
20
1542.4929999101162
10
2066.2955461264792
20
1542.4929999101162
10
2066.2955461264783
20
1536.2929999101161
10
2006.2955461264796
20
1536.2929999101125
10
2006.2955461264796
20
1542.4929999101162
10
1966.2955461264796
20
1542.4929999101164
10
1966.2955461264787
20
1536.2929999101164
10
1906.2955461264798
20
1536.2929999101127
10
1906.2955461264796
20
1542.4929999101162
10
1866.2955461264796
20
1542.4929999101164
10
1866.2955461264789
20
1536.2929999101164
10
1806.2955461264798
20
1536.2929999101127
10
1806.2955461264798
20
1542.4929999101123
10
1766.2955461264801
20
1542.4929999101164
10
1766.2955461264798
20
1536.2929999101164
10
1681.2955461264801
20
1536.2929999101132
10
1681.2955461264803
20
1542.4929999101164
10
1641.2955461264803
20
1542.4929999101164
10
1641.2955461264803
20
1392.4929999101166
10
1964.7955461264733
20
1278.4897104839049
10
2307.7955461264619
20
1278.4897104839049
0
CIRCLE
5
108
100
AcDbEntity
8
0
100
AcDbCircle
10
1656.2955461264801
20
1487.4929999101166
30
0
40
3.0499999999999901
210
0
220
-0
230
1
0
CIRCLE
5
109
100
AcDbEntity
8
0
100
AcDbCircle
10
1656.2955461264801
20
1437.4929999101166
30
0
40
3.0499999999999901
210
0
220
-0
230
1
0
LWPOLYLINE
5
110
100
AcDbEntity
8
0
100
AcDbPolyline
90
4
70
1
43
0.0
10
2133.245546126479
20
1397.4929999101164
10
2133.245546126479
20
1447.4929999101164
10
2139.3455461264789
20
1447.4929999101164
10
2139.3455461264789
20
1397.4929999101164
0
LWPOLYLINE
5
111
100
AcDbEntity
8
0
100
AcDbPolyline
90
4
70
1
43
0.0
10
2411.5419018116099
20
1465.0505321657695
10
2345.5214936483499
20
1441.7845547318475
10
2343.494029900532
20
1447.5377617289282
10
2409.5144380637989
20
1470.8037391628477
0
LWPOLYLINE
5
112
100
AcDbEntity
8
0
100
AcDbPolyline
90
4
70
1
43
0.0
10
2074.7955461264801
20
1428.4897104838897
10
2004.7955461264794
20
1428.4897104838897
10
2004.7955461264801
20
1434.5897104838898
10
2074.7955461264796
20
1434.58971048389
0
LWPOLYLINE
5
113
100
AcDbEntity
8
0
100
AcDbPolyline
90
4
70
1
43
0.0
10
1929.0970623524272
20
1447.53776172893
10
1927.0695986046221
20
1441.7845547318436
10
1861.0491904413489
20
1465.0505321657697
10
1863.0766541891612
20
1470.8037391628525
0
CIRCLE
5
114
100
AcDbEntity
8
0
100
AcDbCircle
10
2154.3455461264789
20
1487.4929999101164
30
0
40
3.0500000000000611
210
0
220
-0
230
1
0
LWPOLYLINE
5
115
100
AcDbEntity
8
0
100
AcDbPolyline
90
4
70
1
43
0.0
10
2267.795546126471
20
1434.5897104838903
10
2267.7955461264787
20
1428.4897104838892
10
2197.7955461264737
20
1428.4897104838892
10
2197.7955461264792
20
1434.5897104838903
0
LWPOLYLINE
5
116
100
AcDbEntity
8
0
100
AcDbPolyline
90
4
70
1
43
0.0
10
1745.0419018116054
20
1505.9321782282382
10
1679.0214936483403
20
1529.1981556621622
10
1681.0489573961572
20
1534.9513626592388
10
1747.069365559423
20
1511.6853852253166
0
CIRCLE
5
117
100
AcDbEntity
8
0
100
AcDbCircle
10
2118.245546126479
20
1487.4929999101164
30
0
40
3.0500000000000611
210
0
220
-0
230
1
0
LWPOLYLINE
5
118
100
AcDbEntity
8
0
100
AcDbPolyline
90
2
70
1
43
0.0
10
1791.6294518639279
20
1489.514453491689
42
0.25932198068882772
10
1788.833600875158
20
1490.4997277095106
0
LWPOLYLINE
5
119
100
AcDbEntity
8
0
100
AcDbPolyline
90
4
70
1
43
0.0
10
2591.5421348568048
20
1534.9513626592263
10
2593.5695986046112
20
1529.1981556621593
10
2527.5491904413425
20
1505.9321782282339
10
2525.5217266935374
20
1511.6853852253064
0
LWPOLYLINE
5
120
100
AcDbEntity
8
0
100
AcDbPolyline
90
2
70
1
43
0.0
10
2483.7574913778003
20
1490.4997277095104
42
0.25932198068867507
10
2480.96164038903
20
1489.5144534916881
0
LWPOLYLINE
5
121
100
AcDbEntity
8
0
100
AcDbPolyline
90
4
70
1
43
0.0
10
2580.7650182429711
20
1333.7111726439273
10
2630.7650182429725
20
1328.7111726439409
10
2630.7650182429625
20
1363.7111726439409
10
2580.7650182429643
20
1358.7111726439273
0
LWPOLYLINE
5
122
100
AcDbEntity
8
0
100
AcDbPolyline
90
4
70
1
43
0.0
10
2582.2151998302288
20
1291.3531670938426
10
2632.2151998302297
20
1286.3531670938562
10
2632.2151998302202
20
1321.3531670938562
10
2582.2151998302224
20
1316.3531670938426
0
LWPOLYLINE
5
123
100
AcDbEntity
8
0
100
AcDbPolyline
90
4
70
1
43
0.0
10
2519.5333972497792
20
1311.6949707237045
10
2569.5333972497801
20
1306.6949707237181
10
2569.5333972497706
20
1341.6949707237181
10
2519.533397249772
20
1336.6949707237045
0
LWPOLYLINE
5
124
100
AcDbEntity
8
0
100
AcDbPolyline
90
4
70
1
43
0.0
10
1706.6768625627833
20
1319.2864024325957
10
1756.6768625627844
20
1314.2864024326093
10
1756.6768625627751
20
1349.2864024326093
10
1706.6768625627767
20
1344.2864024325957
0
LWPOLYLINE
5
125
100
AcDbEntity
8
0
100
AcDbPolyline
90
4
70
1
43
0.0
10
1647.0900201031209
20
1340.348889494677
10
1697.0900201031218
20
1335.3488894946906
10
1697.0900201031122
20
1370.3488894946906
10
1647.0900201031136
20
1365.348889494677
0
LWPOLYLINE
5
126
100
AcDbEntity
8
0
100
AcDbPolyline
90
4
70
1
43
0.0
10
1646.7123789535435
20
1300.7152865634971
10
1696.7123789535447
20
1295.7152865635107
10
1696.7123789535349
20
1330.7152865635107
10
1646.7123789535365
20
1325.7152865634973
0
ENDSEC
0
SECTION
2
OBJECTS
0
DICTIONARY
5
C
100
AcDbDictionary
3
ACAD_GROUP
350
D
3
ACAD_MLINESTYLE
350
17
0
DICTIONARY
5
D
100
AcDbDictionary
0
DICTIONARY
5
1A
330
C
100
AcDbDictionary
0
DICTIONARY
5
17
100
AcDbDictionary
0
ENDSEC
0
EOF
